<?xml version="1.0" encoding="UTF-8" standalone="no"?>
<!--

    Copyright (c) 2012-2017 Codenvy, S.A.
    All rights reserved. This program and the accompanying materials
    are made available under the terms of the Eclipse Public License v1.0
    which accompanies this distribution, and is available at
    http://www.eclipse.org/legal/epl-v10.html

    Contributors:
      Codenvy, S.A. - initial API and implementation

-->

<svg
   xmlns:dc="http://purl.org/dc/elements/1.1/"
   xmlns:cc="http://creativecommons.org/ns#"
   xmlns:rdf="http://www.w3.org/1999/02/22-rdf-syntax-ns#"
   xmlns:svg="http://www.w3.org/2000/svg"
   xmlns="http://www.w3.org/2000/svg"
   xmlns:sodipodi="http://sodipodi.sourceforge.net/DTD/sodipodi-0.dtd"
   xmlns:inkscape="http://www.inkscape.org/namespaces/inkscape"
   version="1.1"
   id="interface"
   x="0px"
   y="0px"
   width="32px"
   height="32px"
   viewBox="0 0 32 32"
   enable-background="new 0 0 32 32"
   xml:space="preserve"
   inkscape:version="0.91 r13725"
   sodipodi:docname="interface-type.svg"><metadata
     id="metadata13"><rdf:RDF><cc:Work
         rdf:about=""><dc:format>image/svg+xml</dc:format><dc:type
           rdf:resource="http://purl.org/dc/dcmitype/StillImage" /></cc:Work></rdf:RDF></metadata><defs
     id="defs11" /><sodipodi:namedview
     pagecolor="#ffffff"
     bordercolor="#666666"
     borderopacity="1"
     objecttolerance="10"
     gridtolerance="10"
     guidetolerance="10"
     inkscape:pageopacity="0"
     inkscape:pageshadow="2"
     inkscape:window-width="1069"
     inkscape:window-height="925"
     id="namedview9"
     showgrid="false"
     inkscape:zoom="7.375"
     inkscape:cx="5.1525424"
     inkscape:cy="21.423729"
     inkscape:window-x="783"
     inkscape:window-y="77"
     inkscape:window-maximized="0"
     inkscape:current-layer="interface" /><g
     id="g3"
     transform="matrix(1.779661,0,0,1.779661,-12.474577,-12.338984)"><path
       d="m 16,24 c 4.406,0 8,-3.594 8,-8 0,-4.406 -3.594,-8 -8,-8 -4.406,0 -8,3.594 -8,8 0,4.406 3.594,8 8,8 z"
       id="path5"
       inkscape:connector-curvature="0"
       style="clip-rule:evenodd;fill:#9a5cff;fill-rule:evenodd" /><path
       d="m 15.25,12 1.501,0 C 16.888,12 17,12.112 17,12.25 l 0,7.5 C 17,19.888 16.888,20 16.751,20 L 15.25,20 C 15.112,20 15,19.888 15,19.75 l 0,-7.5 C 15,12.112 15.112,12 15.25,12 Z"
       id="path7"
       inkscape:connector-curvature="0"
       style="clip-rule:evenodd;fill:#ffffff;fill-rule:evenodd" /></g></svg>